<svg xmlns="http://www.w3.org/2000/svg" viewBox="-0.5 -0.5 16 16" fill="none" stroke="#d1d1d1"
  stroke-linecap="round" stroke-linejoin="round" id="Face-Id-Error--Streamline-Tabler" height="128"
  width="128">
  <desc>Face Id Error Streamline Icon: https://streamlinehq.com</desc>
  <path d="M2.5 5V3.75a1.25 1.25 0 0 1 1.25 -1.25h1.25" stroke-width="1"></path>
  <path d="M2.5 10v1.25a1.25 1.25 0 0 0 1.25 1.25h1.25" stroke-width="1"></path>
  <path d="M10 2.5h1.25a1.25 1.25 0 0 1 1.25 1.25v1.25" stroke-width="1"></path>
  <path d="M10 12.5h1.25a1.25 1.25 0 0 0 1.25 -1.25v-1.25" stroke-width="1"></path>
  <path d="M5.625 6.25h0.00625" stroke-width="1"></path>
  <path d="M9.375 6.25h0.00625" stroke-width="1"></path>
  <path d="M5.9375 9.40625a2.1875 2.1875 0 0 1 3.125 0" stroke-width="1"></path>
</svg>