<svg width="20" height="20" viewBox="0 0 20 20" fill="none" xmlns="http://www.w3.org/2000/svg">
<path d="M12.9165 9.99992C12.9165 11.6108 11.6107 12.9166 9.99986 12.9166C8.38902 12.9166 7.08319 11.6108 7.08319 9.99992C7.08319 8.38909 8.38902 7.08325 9.99986 7.08325C11.6107 7.08325 12.9165 8.38909 12.9165 9.99992Z" stroke="#080B12" stroke-width="1.25"/>
<path d="M17.509 11.7471C17.9439 11.6298 18.1614 11.5712 18.2473 11.459C18.3332 11.3469 18.3332 11.1665 18.3332 10.8058V9.19435C18.3332 8.8336 18.3332 8.65318 18.2473 8.5411C18.1613 8.42893 17.9439 8.37026 17.509 8.253C15.8837 7.81467 14.8664 6.11544 15.2859 4.50074C15.4013 4.05667 15.4589 3.83465 15.4038 3.70442C15.3488 3.5742 15.1908 3.48446 14.8746 3.30498L13.4373 2.48896C13.1272 2.31284 12.9721 2.22478 12.8329 2.24353C12.6937 2.26228 12.5367 2.41896 12.2225 2.73229C11.0065 3.94541 8.9945 3.94536 7.77845 2.73221C7.46436 2.41887 7.30732 2.26221 7.16811 2.24345C7.02891 2.2247 6.87381 2.31276 6.56361 2.48887L5.12637 3.30491C4.81028 3.48437 4.65223 3.57411 4.59715 3.70431C4.54207 3.83451 4.59973 4.05657 4.71505 4.50068C5.13431 6.11543 4.11627 7.81471 2.49069 8.25301C2.05577 8.37026 1.83831 8.42893 1.7524 8.54101C1.6665 8.65318 1.6665 8.8336 1.6665 9.19435V10.8058C1.6665 11.1665 1.6665 11.3469 1.7524 11.459C1.8383 11.5712 2.05576 11.6298 2.49069 11.7471C4.116 12.1854 5.13324 13.8847 4.71377 15.4993C4.59841 15.9434 4.54073 16.1654 4.5958 16.2957C4.65089 16.4259 4.80894 16.5157 5.12505 16.6951L6.5623 17.5112C6.87251 17.6873 7.02762 17.7753 7.16684 17.7566C7.30605 17.7378 7.46307 17.5811 7.7771 17.2678C8.99375 16.0537 11.0072 16.0536 12.2239 17.2677C12.5379 17.5811 12.6949 17.7378 12.8342 17.7565C12.9733 17.7753 13.1285 17.6872 13.4387 17.5111L14.8759 16.695C15.1921 16.5156 15.3502 16.4258 15.4052 16.2956C15.4603 16.1653 15.4026 15.9433 15.2872 15.4993C14.8675 13.8847 15.8839 12.1855 17.509 11.7471Z" stroke="#080B12" stroke-width="1.25" stroke-linecap="round"/>
</svg>
