<svg xmlns="http://www.w3.org/2000/svg" viewBox="-0.5 -0.5 16 16" fill="none" stroke="#ca3884" stroke-linecap="round" stroke-linejoin="round" id="Shopping-Bag-Heart--Streamline-Tabler" height="24" width="24"><desc>Shopping Bag Heart Streamline Icon: https://streamlinehq.com</desc><path d="M7.1875 13.125H5.35875a1.875 1.875 0 0 1 -1.853125 -1.59l-0.7843749999999999 -5.095A1.25 1.25 0 0 1 3.956875 5H11.043750000000001a1.25 1.25 0 0 1 1.235625 1.44c-0.035625000000000004 0.22999999999999998 -0.0625 0.4025 -0.079375 0.5175" stroke-width="1"></path><path d="M5.625 6.875V3.75a1.875 1.875 0 0 1 3.75 0v3.125" stroke-width="1"></path><path d="m11.25 13.75 2.09375 -2.0524999999999998a1.339375 1.339375 0 0 0 0.003125 -1.919375 1.40125 1.40125 0 0 0 -1.955625 -0.00375l-0.14 0.1375 -0.139375 -0.1375a1.40125 1.40125 0 0 0 -1.955 -0.00375 1.339375 1.339375 0 0 0 -0.00375 1.919375L11.25 13.75z" stroke-width="1"></path></svg>